<svg xmlns="http://www.w3.org/2000/svg" version="1.1" xmlns:xlink="http://www.w3.org/1999/xlink" xmlns:svgjs="http://svgjs.dev/svgjs" width="1500" height="1500" viewBox="0 0 1500 1500"><rect width="1500" height="1500" fill="#0a1627"></rect><g transform="matrix(0.6666666666666666,0,0,0.6666666666666666,249.39393939393938,519.1709108478229)"><svg viewBox="0 0 396 182" data-background-color="#0a1627" preserveAspectRatio="xMidYMid meet" height="689" width="1500" xmlns="http://www.w3.org/2000/svg" xmlns:xlink="http://www.w3.org/1999/xlink"><g id="tight-bounds" transform="matrix(1,0,0,1,0.2400000000000091,0.4605824942588441)"><svg viewBox="0 0 395.52 181.0788350114823" height="181.0788350114823" width="395.52"><g><svg viewBox="0 0 395.52 181.0788350114823" height="181.0788350114823" width="395.52"><g transform="matrix(1,0,0,1,0,134.7315813025878)"><svg viewBox="0 0 395.52 46.3472537088945" height="46.3472537088945" width="395.52"><g id="textblocktransform"><svg viewBox="0 0 395.52 46.3472537088945" height="46.3472537088945" width="395.52" id="textblock"><g><svg viewBox="0 0 395.52 46.3472537088945" height="46.3472537088945" width="395.52"><g transform="matrix(1,0,0,1,0,0)"><svg width="395.52" viewBox="3.78 -33.48 365.63000000000005 42.86" height="46.3472537088945" data-palette-color="#fe0039"><path d="M17.05 0L17.05 0 6.6 0 6.6-3.43 16.65-3.43Q19.9-3.43 21.26-4.81 22.63-6.2 22.63-8.65L22.63-8.65 22.63-9.55Q22.63-12.05 21.24-13.43 19.85-14.8 16.4-14.8L16.4-14.8 6.63-14.8 6.63-18.07 16.35-18.07Q19.43-18.07 20.74-19.41 22.05-20.75 22.05-23.13L22.05-23.13 22.05-23.58Q22.05-25.93 20.79-27.24 19.53-28.55 16.32-28.55L16.32-28.55 6.53-28.55 6.53-31.95 16.7-31.95Q21.8-31.95 24-29.93 26.2-27.9 26.2-24.23L26.2-24.23 26.2-23.73Q26.2-20.8 24.8-19.13 23.4-17.45 20.45-17.13L20.45-17.13 20.43-16.98Q23.8-16.48 25.33-14.63 26.85-12.78 26.85-9.47L26.85-9.47 26.85-8.45Q26.85-4.48 24.55-2.24 22.25 0 17.05 0ZM7.88-31.95L7.88 0 3.78 0 3.78-31.95 7.88-31.95ZM51-15.8L51 0 46.97 0 47.15-5.93 47-6.55 47-14.33 47.02-15.75Q47.02-18.73 45.51-20.15 44-21.58 40.72-21.58L40.72-21.58Q38.1-21.58 35.91-20.83 33.72-20.08 32.02-19.07L32.02-19.07 32.4-22.53Q33.35-23.1 34.66-23.66 35.97-24.23 37.66-24.6 39.35-24.98 41.37-24.98L41.37-24.98Q44-24.98 45.83-24.34 47.67-23.7 48.81-22.5 49.95-21.3 50.47-19.6 51-17.9 51-15.8L51-15.8ZM38.57 0.53L38.57 0.53Q34.95 0.53 33.01-1.24 31.07-3 31.07-6.28L31.07-6.28 31.07-7Q31.07-10.38 33.16-12.04 35.25-13.7 39.8-14.35L39.8-14.35 47.52-15.45 47.75-12.5 40.3-11.43Q37.5-11.03 36.3-10.06 35.1-9.1 35.1-7.23L35.1-7.23 35.1-6.83Q35.1-4.9 36.28-3.88 37.47-2.85 39.85-2.85L39.85-2.85Q41.95-2.85 43.45-3.58 44.95-4.3 45.87-5.53 46.8-6.75 47.12-8.25L47.12-8.25 47.75-5.5 46.97-5.5Q46.62-3.9 45.66-2.53 44.7-1.15 42.97-0.31 41.25 0.53 38.57 0.53ZM69.22 0.53L69.22 0.53Q66.97 0.53 65.31-0.23 63.65-0.98 62.62-2.38 61.6-3.78 61.25-5.63L61.25-5.63 59.9-5.63 61.12-9.43Q61.25-7.23 62.16-5.76 63.07-4.3 64.59-3.58 66.12-2.85 68.05-2.85L68.05-2.85Q71.09-2.85 72.71-4.65 74.32-6.45 74.32-10L74.32-10 74.32-14.58Q74.32-18.05 72.7-19.85 71.07-21.65 67.97-21.65L67.97-21.65Q66.12-21.65 64.7-20.93 63.27-20.2 62.33-18.95 61.4-17.7 61.05-16.1L61.05-16.1 60.12-18.93 61.27-18.93Q61.65-20.6 62.61-21.96 63.57-23.33 65.25-24.14 66.92-24.95 69.4-24.95L69.4-24.95Q73.8-24.95 76.09-22.21 78.4-19.48 78.4-14.28L78.4-14.28 78.4-10.23Q78.4-4.98 76.06-2.23 73.72 0.53 69.22 0.53ZM61.07-5.9L61.25 0 57.2 0 57.2-33.13 61.22-33.13 61.22-25.18 61.1-18.18 61.12-17.4 61.12-7.2 61.07-5.9ZM94.29 0.55L94.29 0.55Q88.72 0.55 85.89-2.18 83.07-4.9 83.07-9.98L83.07-9.98 83.07-14.33Q83.07-19.48 85.69-22.26 88.32-25.05 93.37-25.05L93.37-25.05Q96.77-25.05 99.04-23.79 101.32-22.53 102.47-20.2 103.62-17.88 103.62-14.65L103.62-14.65 103.62-13.75Q103.62-12.95 103.56-12.15 103.49-11.35 103.39-10.58L103.39-10.58 99.67-10.58Q99.72-11.78 99.73-12.85 99.74-13.93 99.74-14.83L99.74-14.83Q99.74-17.05 99.03-18.59 98.32-20.13 96.91-20.94 95.49-21.75 93.37-21.75L93.37-21.75Q90.22-21.75 88.64-19.93 87.07-18.1 87.07-14.7L87.07-14.7 87.07-12.38 87.09-11.88 87.09-9.55Q87.09-8.03 87.54-6.8 87.99-5.58 88.96-4.69 89.92-3.8 91.41-3.34 92.89-2.88 94.94-2.88L94.94-2.88Q97.32-2.88 99.37-3.5 101.42-4.13 103.22-5.2L103.22-5.2 102.84-1.7Q101.22-0.68 99.07-0.06 96.92 0.55 94.29 0.55ZM102.54-13.63L102.54-10.58 85.19-10.58 85.19-13.63 102.54-13.63ZM110.54-24.4L117.19-3.78 119.52-3.78 117.39-2.85 124.69-24.4 128.87-24.4 117.39 8.6 113.29 8.6 117.14-2.55 118.92-1 114.32-1 106.34-24.4 110.54-24.4ZM156.33 0.58L156.33 0.58Q150.41 0.58 147.45-2.75 144.48-6.08 144.48-12.2L144.48-12.2 144.48-19.78Q144.48-25.9 147.44-29.21 150.38-32.52 156.28-32.52L156.28-32.52Q158.19-32.52 159.75-32.18 161.31-31.83 162.53-31.28 163.76-30.73 164.61-30.13L164.61-30.13 164.96-26.28Q163.48-27.33 161.5-28.11 159.51-28.9 156.83-28.9L156.83-28.9Q152.81-28.9 150.76-26.51 148.71-24.13 148.71-19.73L148.71-19.73 148.71-12.35Q148.71-7.98 150.78-5.56 152.86-3.15 156.98-3.15L156.98-3.15Q159.63-3.15 161.67-3.93 163.71-4.7 165.21-5.83L165.21-5.83 164.86-1.88Q164.01-1.28 162.76-0.7 161.51-0.13 159.9 0.23 158.28 0.58 156.33 0.58ZM179.58 0.63L179.58 0.63Q174.33 0.63 171.62-2.21 168.91-5.05 168.91-10.38L168.91-10.38 168.91-14.1Q168.91-19.4 171.63-22.23 174.36-25.05 179.58-25.05L179.58-25.05Q184.83-25.05 187.54-22.23 190.26-19.4 190.26-14.1L190.26-14.1 190.26-10.38Q190.26-5.05 187.54-2.21 184.83 0.63 179.58 0.63ZM179.58-2.68L179.58-2.68Q182.83-2.68 184.52-4.6 186.21-6.53 186.21-10.15L186.21-10.15 186.21-14.33Q186.21-17.93 184.52-19.84 182.83-21.75 179.58-21.75L179.58-21.75Q176.36-21.75 174.66-19.84 172.96-17.93 172.96-14.33L172.96-14.33 172.96-10.15Q172.96-6.53 174.66-4.6 176.36-2.68 179.58-2.68ZM230.4-15.73L230.4 0 226.35 0 226.35-15.28Q226.35-17.2 225.87-18.61 225.38-20.03 224.27-20.8 223.15-21.58 221.28-21.58L221.28-21.58Q219.5-21.58 218.2-20.85 216.9-20.13 216.1-18.91 215.3-17.7 214.98-16.15L214.98-16.15 214.35-19.03 214.85-19.03Q215.25-20.6 216.2-21.95 217.15-23.3 218.78-24.13 220.4-24.95 222.8-24.95L222.8-24.95Q225.53-24.95 227.19-23.88 228.85-22.8 229.63-20.74 230.4-18.68 230.4-15.73L230.4-15.73ZM199.93-18.3L199.93 0 195.88 0 195.88-24.4 199.93-24.4 199.75-18.55 199.93-18.3ZM215.15-15.85L215.15 0 211.13 0 211.13-15.28Q211.13-17.2 210.64-18.61 210.15-20.03 209.05-20.8 207.95-21.58 206.08-21.58L206.08-21.58Q204.28-21.58 202.98-20.85 201.68-20.13 200.88-18.89 200.08-17.65 199.75-16.07L199.75-16.07 199-18.95 199.9-18.95Q200.28-20.6 201.2-21.96 202.13-23.33 203.72-24.14 205.3-24.95 207.58-24.95L207.58-24.95Q210.95-24.95 212.72-23.2 214.48-21.45 214.93-18.1L214.93-18.1Q215.05-17.6 215.1-17.01 215.15-16.43 215.15-15.85L215.15-15.85ZM248.7 0.53L248.7 0.53Q246.45 0.53 244.8-0.23 243.15-0.98 242.13-2.38 241.1-3.78 240.75-5.63L240.75-5.63 239.43-5.63 240.6-9.43Q240.7-7.23 241.59-5.76 242.48-4.3 244-3.58 245.53-2.85 247.45-2.85L247.45-2.85Q250.53-2.85 252.16-4.65 253.8-6.45 253.8-9.93L253.8-9.93 253.8-14.6Q253.8-18.05 252.18-19.85 250.55-21.65 247.45-21.65L247.45-21.65Q245.6-21.65 244.18-20.93 242.75-20.2 241.81-18.95 240.88-17.7 240.53-16.1L240.53-16.1 239.53-18.93 240.7-18.93Q241.1-20.6 242.06-21.96 243.03-23.33 244.72-24.14 246.4-24.95 248.88-24.95L248.88-24.95Q253.28-24.95 255.58-22.21 257.88-19.48 257.88-14.28L257.88-14.28 257.88-10.23Q257.88-4.98 255.56-2.23 253.25 0.53 248.7 0.53ZM240.7 0.68L240.7 8.6 236.68 8.6 236.68-24.4 240.73-24.4 240.55-18.53 240.6-17.28 240.6-7 240.58-6.18 240.7 0.68ZM263.23-8.78L263.23-24.4 267.25-24.4 267.25-9.22Q267.25-7.3 267.79-5.86 268.33-4.42 269.55-3.64 270.78-2.85 272.85-2.85L272.85-2.85Q274.8-2.85 276.2-3.56 277.6-4.28 278.49-5.53 279.38-6.78 279.7-8.35L279.7-8.35 280.43-5.48 279.55-5.48Q279.18-3.83 278.18-2.46 277.18-1.1 275.49-0.29 273.8 0.53 271.33 0.53L271.33 0.53Q268.45 0.53 266.66-0.56 264.88-1.65 264.05-3.74 263.23-5.83 263.23-8.78L263.23-8.78ZM279.53-6.1L279.53-24.4 283.58-24.4 283.58 0 279.53 0 279.7-5.85 279.53-6.1ZM299.1 0.5L299.1 0.5Q296.27 0.5 294.55-0.35 292.82-1.2 292.05-2.93 291.27-4.65 291.27-7.23L291.27-7.23 291.27-22.63 295.27-22.63 295.27-7.7Q295.27-5.3 296.37-4.16 297.47-3.03 300.07-3.03L300.07-3.03Q301.55-3.03 302.91-3.35 304.27-3.68 305.47-4.28L305.47-4.28 305.1-0.8Q303.92-0.2 302.35 0.15 300.77 0.5 299.1 0.5ZM305.22-24.05L304.85-20.8 287.27-20.8 287.27-24.05 305.22-24.05ZM295.35-31.03L295.17-23.65 291.3-23.65 291.27-30.5 295.35-31.03ZM314.12-24.4L314.12 0 310.07 0 310.07-24.4 314.12-24.4ZM312.09-28.4L312.09-28.4Q310.84-28.4 310.23-29.06 309.62-29.73 309.62-30.88L309.62-30.88 309.62-31Q309.62-32.18 310.23-32.83 310.84-33.48 312.09-33.48L312.09-33.48Q313.34-33.48 313.97-32.83 314.59-32.18 314.59-31L314.59-31 314.59-30.88Q314.59-29.7 313.97-29.05 313.34-28.4 312.09-28.4ZM341.19-15.63L341.19 0 337.14 0 337.14-15.18Q337.14-17.15 336.6-18.57 336.07-20 334.85-20.79 333.64-21.58 331.54-21.58L331.54-21.58Q329.62-21.58 328.2-20.85 326.79-20.13 325.92-18.89 325.04-17.65 324.69-16.07L324.69-16.07 323.97-18.95 324.84-18.95Q325.24-20.6 326.24-21.96 327.24-23.33 328.93-24.14 330.62-24.95 333.07-24.95L333.07-24.95Q335.97-24.95 337.75-23.85 339.54-22.75 340.37-20.69 341.19-18.63 341.19-15.63L341.19-15.63ZM324.87-18.32L324.87 0 320.82 0 320.82-24.4 324.87-24.4 324.69-18.55 324.87-18.32ZM356.96-7.3L356.96-7.3Q351.99-7.3 349.33-9.47 346.66-11.65 346.66-15.7L346.66-15.7 346.66-16.32Q346.66-18.85 347.7-20.73 348.74-22.6 351.01-23.66 353.29-24.73 356.96-24.83L356.96-24.83 369.41-25.23 369.41-22.03 362.06-22.28 362.04-22.1Q363.76-21.75 364.86-20.9 365.96-20.05 366.5-18.78 367.04-17.5 367.04-15.8L367.04-15.8 367.04-15.25Q367.04-11.38 364.49-9.34 361.94-7.3 356.96-7.3ZM356.79 6.15L356.79 6.15 357.36 6.15Q359.61 6.15 361.23 5.81 362.84 5.48 363.71 4.75 364.59 4.03 364.59 2.83L364.59 2.83 364.59 2.73Q364.59 1.33 363.58 0.59 362.56-0.15 360.11-0.38L360.11-0.38 353.21-1 354.36-1.05Q352.96-0.85 351.9-0.4 350.84 0.05 350.24 0.79 349.64 1.53 349.64 2.63L349.64 2.63 349.64 2.68Q349.64 3.95 350.51 4.73 351.39 5.5 352.99 5.83 354.59 6.15 356.79 6.15ZM357.29 9.38L357.29 9.38 356.56 9.38Q353.26 9.38 350.88 8.81 348.49 8.25 347.18 6.99 345.86 5.73 345.86 3.6L345.86 3.6 345.86 3.5Q345.86 2 346.58 1 347.29 0 348.5-0.58 349.71-1.15 351.21-1.35L351.21-1.35 351.19-1.5Q349.14-1.85 348.16-2.71 347.19-3.58 347.19-4.95L347.19-4.95 347.19-4.98Q347.19-5.93 347.63-6.6 348.06-7.28 348.95-7.68 349.84-8.08 351.21-8.18L351.21-8.18 351.21-8.68 355.86-7.5 353.96-7.55Q352.26-7.53 351.61-7.14 350.96-6.75 350.96-5.98L350.96-5.98 350.96-5.95Q350.96-5.13 351.89-4.7 352.81-4.28 355.04-4.03L355.04-4.03 360.96-3.43Q364.84-3.03 366.61-1.56 368.39-0.1 368.39 2.75L368.39 2.75 368.39 2.88Q368.39 5.15 367.04 6.6 365.69 8.05 363.21 8.71 360.74 9.38 357.29 9.38ZM356.91-10.3L356.91-10.3Q359.01-10.3 360.4-10.91 361.79-11.53 362.5-12.76 363.21-14 363.21-15.8L363.21-15.8 363.21-16.4Q363.21-18.15 362.53-19.38 361.84-20.6 360.46-21.24 359.09-21.88 357.01-21.88L357.01-21.88 356.86-21.88Q354.61-21.88 353.2-21.19 351.79-20.5 351.15-19.26 350.51-18.03 350.51-16.38L350.51-16.38 350.51-15.8Q350.51-14 351.23-12.78 351.94-11.55 353.36-10.93 354.79-10.3 356.91-10.3Z" opacity="1" transform="matrix(1,0,0,1,0,0)" fill="#fe0039" class="wordmark-text-0" data-fill-palette-color="primary" id="text-0"></path></svg></g></svg></g></svg></g></svg></g><g transform="matrix(1,0,0,1,141.33568361528705,0)"><svg viewBox="0 0 112.84863276942586 112.84863276942586" height="112.84863276942586" width="112.84863276942586"><g><svg></svg></g><g id="icon-0"><svg viewBox="0 0 112.84863276942586 112.84863276942586" height="112.84863276942586" width="112.84863276942586"><g><path d="M0 56.424c0-31.162 25.262-56.424 56.424-56.424 31.162 0 56.424 25.262 56.425 56.424 0 31.162-25.262 56.424-56.425 56.425-31.162 0-56.424-25.262-56.424-56.425zM56.424 108.669c28.854 0 52.245-23.391 52.245-52.245 0-28.854-23.391-52.245-52.245-52.244-28.854 0-52.245 23.391-52.244 52.244 0 28.854 23.391 52.245 52.244 52.245z" data-fill-palette-color="tertiary" fill="#fe0039" stroke="transparent"></path></g><g transform="matrix(1,0,0,1,23.771668345546296,29.957745907325986)"><svg viewBox="0 0 65.30529607833327 52.93314095477389" height="52.93314095477389" width="65.30529607833327"><g><svg xmlns:x="http://ns.adobe.com/Extensibility/1.0/" xmlns:i="http://ns.adobe.com/AdobeIllustrator/10.0/" xmlns:graph="http://ns.adobe.com/Graphs/1.0/" xmlns="http://www.w3.org/2000/svg" xmlns:xlink="http://www.w3.org/1999/xlink" version="1.1" x="0" y="0" viewBox="3.5 12.3 92.9 75.3" enable-background="new 0 0 100 100" xml:space="preserve" height="52.93314095477389" width="65.30529607833327" class="icon-dxe-0" data-fill-palette-color="accent" id="dxe-0"><path d="M10.7 87.6H89.2C93.2 87.6 96.4 84.4 96.4 80.4V19.5C96.4 15.5 93.2 12.3 89.2 12.3H10.7C6.7 12.3 3.5 15.5 3.5 19.5V80.4C3.6 84.4 6.8 87.6 10.7 87.6M89.3 82.6H10.7C9.5 82.6 8.5 81.6 8.5 80.4V34.9H91.4V80.4C91.4 81.7 90.5 82.6 89.3 82.6M10.7 17.4H89.2C90.4 17.4 91.4 18.4 91.4 19.6V30H8.6V19.5C8.6 18.3 9.5 17.4 10.7 17.4M21.9 23.6C21.9 21.9 23.3 20.6 24.9 20.6S27.9 22 27.9 23.6C27.9 25.3 26.5 26.6 24.9 26.6S21.9 25.3 21.9 23.6M31.9 23.6C31.9 21.9 33.3 20.6 34.9 20.6S37.9 22 37.9 23.6C37.9 25.3 36.5 26.6 34.9 26.6S31.9 25.3 31.9 23.6M11.9 23.6C11.9 21.9 13.3 20.6 14.9 20.6 16.6 20.6 17.9 22 17.9 23.6 17.9 25.3 16.5 26.6 14.9 26.6 13.3 26.7 11.9 25.3 11.9 23.6M85.4 74.7C85.4 76.1 84.3 77.2 82.9 77.2H17.1C15.7 77.2 14.6 76.1 14.6 74.7S15.7 72.2 17.1 72.2H82.9C84.3 72.2 85.4 73.4 85.4 74.7M85.4 64.2C85.4 65.6 84.3 66.7 82.9 66.7H34.4C33 66.7 31.9 65.6 31.9 64.2S33 61.7 34.4 61.7H82.9C84.3 61.7 85.4 62.8 85.4 64.2M85.4 53.7C85.4 55.1 84.3 56.2 82.9 56.2H17.1C15.7 56.2 14.6 55.1 14.6 53.7S15.7 51.2 17.1 51.2H82.9C84.3 51.2 85.4 52.3 85.4 53.7M85.4 43.1C85.4 44.5 84.3 45.6 82.9 45.6H50C48.6 45.6 47.5 44.5 47.5 43.1S48.6 40.6 50 40.6H82.9C84.3 40.6 85.4 41.7 85.4 43.1" fill="#c1c1c1" data-fill-palette-color="accent"></path></svg><g></g></g></svg></g></svg></g></svg></g><g></g></svg></g><defs></defs></svg><rect width="395.52" height="181.0788350114823" fill="none" stroke="none" visibility="hidden"></rect></g></svg></g></svg>